<svg xmlns="http://www.w3.org/2000/svg" aria-hidden="true" color="#1c2033" viewBox="0 0 99.8 98.6"><rect width="94.6" height="94.6" x="2.6" y="2" rx="3.4"/><path fill="#4d4d4d" d="M29.9 21.8v-10c0-6.2-1.3-7.5-7.5-7.5h-10c-6 0-7.6 1.3-7.6 7.4v10c0 6.2 1.3 7.6 7.5 7.6h10c6.3 0 7.6-1.3 7.6-7.5m0 32.6v-10c0-6.3-1.3-7.5-7.5-7.5l-10-.1c-6 0-7.6 1.4-7.6 7.5v10c0 6.2 1.3 7.5 7.5 7.5h10c6.3 0 7.6-1.2 7.6-7.4m0 32.6V77c0-6.3-1.3-7.6-7.5-7.6h-10c-6 0-7.6 1.4-7.6 7.5v10c0 6.2 1.3 7.5 7.5 7.5h10c6.3 0 7.6-1.3 7.6-7.4m32.5-65.2v-10c0-6.2-1.3-7.5-7.5-7.5H45c-6 0-7.5 1.3-7.5 7.4v10c0 6.2 1.2 7.6 7.5 7.6h10c6.3 0 7.5-1.3 7.5-7.5m0 32.6v-10c0-6.3-1.3-7.5-7.5-7.5l-10-.1c-6 0-7.5 1.4-7.5 7.5v10c0 6.2 1.2 7.5 7.5 7.5h10c6.3 0 7.5-1.2 7.5-7.4m0 32.6V77c0-6.3-1.3-7.6-7.5-7.6H45c-6 0-7.5 1.4-7.5 7.5v10c0 6.2 1.2 7.5 7.5 7.5h10c6.3 0 7.5-1.3 7.5-7.4M95 21.8v-10c0-6.2-1.3-7.5-7.5-7.5h-10c-6 0-7.5 1.3-7.5 7.4v10c0 6.2 1.2 7.6 7.5 7.6h10c6.3 0 7.5-1.3 7.5-7.5m0 32.6v-10c0-6.3-1.3-7.5-7.5-7.5l-10-.1c-6 0-7.5 1.4-7.5 7.5v10c0 6.2 1.2 7.5 7.5 7.5h10c6.3 0 7.5-1.2 7.5-7.4M95 87V77c0-6.3-1.3-7.6-7.5-7.6h-10c-6 0-7.5 1.4-7.5 7.5v10c0 6.2 1.2 7.5 7.5 7.5h10c6.3 0 7.5-1.3 7.5-7.4"/></svg>