<svg xmlns="http://www.w3.org/2000/svg" viewBox="0 0 37 37"><g fill="#000"><rect width="7.9" height="7.9" x="1" y="1" rx="1.3" ry="1.3"/><rect width="7.9" height="7.9" x="10" y="1" rx="1.3" ry="1.3"/><rect width="16.9" height="7.9" x="19" y="1" rx="1.3" ry="1.3"/><rect width="7.9" height="7.9" x="1" y="10" rx="1.3" ry="1.3"/><rect width="7.9" height="16.9" x="10" y="10" rx="1.3" ry="1.3"/><rect width="7.9" height="7.9" x="19" y="10" rx="1.3" ry="1.3"/><rect width="7.9" height="7.9" x="28" y="10" rx="1.3" ry="1.3"/><rect width="7.9" height="7.9" x="1" y="19" rx="1.3" ry="1.3"/><rect width="7.9" height="7.9" x="19" y="19" rx="1.3" ry="1.3"/><rect width="7.9" height="7.9" x="28" y="19" rx="1.3" ry="1.3"/><rect width="7.9" height="7.9" x="1" y="28" rx="1.3" ry="1.3"/><rect width="7.9" height="7.9" x="10" y="28" rx="1.3" ry="1.3"/><rect width="7.9" height="7.9" x="19" y="28" rx="1.3" ry="1.3"/><rect width="7.9" height="7.9" x="28" y="28" rx="1.3" ry="1.3"/></g></svg>