<svg xmlns="http://www.w3.org/2000/svg" fill="currentColor" viewBox="0 0 128 128"><path d="M64 0a64 64 0 1 0 .1 128.1A64 64 0 0 0 64 0M43.5 31.3h3.6v7l-2 .2c-4.3-.2-4.5 1.3-4.8 4.8q-.2 3.3 0 6.7-.3 3.3-1 6.6-1 4.6-5.2 7.4c5.2 3.4 5.8 8.7 6.2 14q0 4.4.3 8.7c.3 2.2 1.1 2.8 3.4 2.8h3v6.9c-6.8 1.1-12.4-.8-13.7-6.5a39 39 0 0 1-.9-6.4v-6.9c-.5-6.3-1.4-8.4-7.4-8.7v-7.8l1.3-.2c3.3-.2 4.7-1.2 5.5-4.4q.5-2.8.6-5.6c.2-3.5.1-7.2.7-10.7q1.4-7.6 9.3-7.9zm41 0c6.2 0 10.3 3 10.7 9.6l.4 9.9q.2 2.7.8 5.3c.7 2.7 2.2 3.6 5 3.8l1.6.1v7.8l-1.1.3q-5.5.1-6 5.6l-.3 7.4a63 63 0 0 1-.8 8q-1.5 7.3-9 7.6H81v-7l2.6-.1c3-.1 4-1 4.2-4l.3-9.8c.3-4.7 1.5-8.8 5.9-11.8a11 11 0 0 1-5-6.8q-.7-5.3-1.2-10.7l-.3-5.4q-.5-2.8-3.3-2.6h-3.3v-6.8zM48.4 59.5c2.5 0 4.5 2 4.4 4.6v.2a4.4 4.4 0 0 1-4.7 4.2H48a4.5 4.5 0 0 1 .4-9m15.5 0q4.4.2 4.6 4.4c.2 4.2-1.7 4.6-4.4 4.6q-4.4-.2-4.6-4.4v-.4c0-2.4 2-4.3 4.4-4.2m15.8 0c2.5 0 4.7 2.1 4.6 4.6-.1 2.6-2.4 4.8-4.7 4.4A4.5 4.5 0 0 1 75 64a4.6 4.6 0 0 1 4.7-4.5"/></svg>